Coordinates
version=1
nRows=24
nColumns=24
inDegrees=yes

Units are S.I. units (second, meters, Newtons, ...)
Angles are in degrees.

endheader
time	pelvis_tilt	pelvis_list	pelvis_rotation	pelvis_tx	pelvis_ty	pelvis_tz	hip_flexion_r	hip_adduction_r	hip_rotation_r	knee_angle_r	ankle_angle_r	subtalar_angle_r	mtp_angle_r	hip_flexion_l	hip_adduction_l	hip_rotation_l	knee_angle_l	ankle_angle_l	subtalar_angle_l	mtp_angle_l	lumbar_extension	lumbar_bending	lumbar_rotation
      1.37500000	      9.46630143	     -8.73555346	    -12.39737976	     -0.57574185	      0.97594674	      0.08142838	    -23.63160460	      0.73065816	     -9.05939552	    -16.23101845	     12.82070156	     19.00954512	      4.72473716	     16.50894388	    -11.71181679	    -33.34547438	     -8.55849695	     -4.35997346	     -3.69827626	     14.78260742	    -21.70154330	     15.48595357	     54.87273343
      1.38000000	      9.47287427	     -8.75397972	    -12.57856620	     -0.56874476	      0.97494988	      0.08108564	    -23.95230095	      0.51355643	     -8.96358616	    -16.42990713	     12.80867048	     18.99272639	      4.86446004	     16.50935404	    -11.76894610	    -32.73091608	     -9.17659426	     -4.64155270	     -4.44434563	     14.74504239	    -21.70943582	     15.34587891	     54.98131183
      1.38500000	      9.47219843	     -8.76491833	    -12.72753859	     -0.56172393	      0.97399151	      0.08066614	    -24.25670554	      0.29716367	     -8.92006927	    -16.62245879	     12.52799850	     18.98017200	      6.34005588	     16.52730547	    -11.81145451	    -32.10399003	     -9.81883141	     -5.06647236	     -5.24530703	     15.19296555	    -21.70010376	     15.20671661	     55.04915646
      1.39000000	      9.46631084	     -8.76233389	    -12.88599734	     -0.55471056	      0.97311196	      0.08022897	    -24.52297070	      0.06740267	     -8.81022604	    -16.88441073	     12.49242244	     18.86159779	      6.44714292	     16.54313438	    -11.84118195	    -31.53814104	    -10.46858377	     -5.52227345	     -6.03812092	     15.10837340	    -21.68603152	     15.05460930	     55.14494097
      1.39500000	      9.45907474	     -8.73940227	    -13.01960542	     -0.54767682	      0.97229116	      0.07971692	    -24.77171744	     -0.17791964	     -8.72604789	    -17.16023025	     12.38134992	     18.77414675	      6.62826555	     16.56803438	    -11.84265521	    -30.96406596	    -11.13057952	     -6.04608911	     -6.86694114	     15.05643125	    -21.65954540	     14.88795083	     55.19435493
      1.40000000	      9.45643410	     -8.69364243	    -13.13078849	     -0.54060979	      0.97155276	      0.07914861	    -25.01300682	     -0.44163745	     -8.67827000	    -17.41210993	     11.90274561	     18.65403983	      8.79211192	     16.59298775	    -11.81595209	    -30.42514556	    -11.79372046	     -6.69516067	     -7.72899655	     15.64891632	    -21.62739422	     14.70218447	     55.24330602
      1.40500000	      9.44560951	     -8.64677129	    -13.24864750	     -0.53357858	      0.97089852	      0.07856456	    -25.20975857	     -0.70255900	     -8.54464291	    -17.75491852	     11.75395982	     18.44113028	      8.91550271	     16.63265034	    -11.79822954	    -29.92984886	    -12.48979558	     -7.28105216	     -8.55887409	     15.51897861	    -21.59359961	     14.51618225	     55.29934265
      1.41000000	      9.44256933	     -8.57846769	    -13.32777617	     -0.52650389	      0.97034649	      0.07788883	    -25.40224031	     -0.97856346	     -8.48330581	    -18.07017203	     11.19583370	     18.27723895	     10.81571551	     16.67202436	    -11.74737008	    -29.43212023	    -13.18735903	     -7.91925701	     -9.38460098	     15.65457745	    -21.55290693	     14.31943157	     55.33644577
      1.41500000	      9.43184468	     -8.47812457	    -13.44698505	     -0.51944692	      0.96989936	      0.07725077	    -25.53643196	     -1.29454338	     -8.31644147	    -18.48575549	     10.94842030	     17.98974372	     10.91590968	     16.70649672	    -11.68218863	    -29.07089984	    -13.88461393	     -8.54611956	    -10.14167861	     15.53755630	    -21.50515192	     14.07536145	     55.37824802
      1.42000000	      9.42164126	     -8.35883116	    -13.50091335	     -0.51233477	      0.96951101	      0.07648240	    -25.66376080	     -1.60993611	     -8.25204817	    -18.87032494	     10.25596162	     17.69026544	     13.41025137	     16.76521263	    -11.58186058	    -28.66248509	    -14.60826419	     -9.16413301	    -10.90646735	     15.74261527	    -21.43653933	     13.83800054	     55.37203774
      1.42500000	      9.41055621	     -8.24041156	    -13.54751204	     -0.50522845	      0.96923926	      0.07570279	    -25.75347690	     -1.91602087	     -8.14197371	    -19.34357597	      9.85775090	     17.38286650	     13.57498903	     16.82194878	    -11.48735314	    -28.30272902	    -15.34473583	     -9.72174219	    -11.57825590	     15.62715205	    -21.37191248	     13.60403862	     55.39255338
      1.43000000	      9.41023047	     -8.10742157	    -13.57389408	     -0.49808840	      0.96906275	      0.07486365	    -25.83613405	     -2.23712700	     -8.04444299	    -19.79467148	      8.98788536	     17.02801380	     16.26810981	     16.86185169	    -11.36826770	    -27.96603438	    -16.07447459	    -10.23433592	    -12.18493243	     15.66237371	    -21.30878563	     13.35991718	     55.37024729
      1.43500000	      9.41260607	     -7.96437619	    -13.59967226	     -0.49092384	      0.96899760	      0.07402557	    -25.87882170	     -2.56438198	     -7.92310856	    -20.35218903	      8.46755474	     16.67770186	     16.40479226	     16.88971685	    -11.24219870	    -27.71590984	    -16.81051412	    -10.68003665	    -12.72239209	     15.56912411	    -21.24402241	     13.10576159	     55.36377154
      1.44000000	      9.40581207	     -7.81695709	    -13.56960864	     -0.48373234	      0.96897239	      0.07308977	    -25.89731893	     -2.87685573	     -7.87134989	    -20.88115838	      7.41791393	     16.26153767	     19.51021368	     16.93155151	    -11.09270320	    -27.41268594	    -17.53937710	    -11.04871691	    -13.18336223	     15.53398090	    -21.16016701	     12.87077484	     55.31237633
      1.44500000	      9.40248178	     -7.66781485	    -13.53446202	     -0.47651319	      0.96905352	      0.07215269	    -25.87894069	     -3.18634383	     -7.79558222	    -21.49241471	      6.51456067	     15.80673514	     21.22856717	     16.95133243	    -10.93848447	    -27.18318395	    -18.25465360	    -11.34021406	    -13.57086373	     15.43877977	    -21.07567837	     12.63771427	     55.26936665
      1.45000000	      9.43162269	     -7.51958403	    -13.48330026	     -0.46927929	      0.96925678	      0.07119034	    -25.86179774	     -3.49666173	     -7.71468677	    -22.17514071	      5.74905682	     15.38421665	     21.49939923	     16.91539122	    -10.76489870	    -27.00303443	    -18.94032490	    -11.54712323	    -13.95764550	     15.37401181	    -21.02707711	     12.40243818	     55.22789120
      1.45500000	      9.43184597	     -7.37130655	    -13.40716432	     -0.46202033	      0.96949966	      0.07018292	    -25.78279988	     -3.79635327	     -7.66311488	    -22.84454454	      4.43373473	     14.86735330	     24.93462692	     16.89063880	    -10.58653843	    -26.83903509	    -19.59576902	    -11.64595332	    -14.14736127	     15.19229698	    -20.93827829	     12.18830745	     55.14774005
      1.46000000	      9.45740973	     -7.23903314	    -13.28492845	     -0.45473611	      0.96986042	      0.06913441	    -25.70019183	     -4.06436229	     -7.62462434	    -23.61289058	      3.45276945	     14.51472522	     24.99955695	     16.81767285	    -10.39796369	    -26.67662665	    -20.21034158	    -11.68369600	    -14.31514315	     15.16865003	    -20.86982434	     11.99661419	     55.02223309
      1.46500000	      9.46013341	     -7.10581513	    -13.14547272	     -0.44747328	      0.97025094	      0.06805098	    -25.54717527	     -4.32291246	     -7.62957061	    -24.39807965	      2.01037033	     13.84007235	     28.56637808	     16.75359643	    -10.19737410	    -26.52237350	    -20.79800628	    -11.60425546	    -14.46555079	     14.83655461	    -20.78229242	     11.82440134	     54.94277130
      1.47000000	      9.47881634	     -6.99560395	    -12.93507443	     -0.44018743	      0.97073477	      0.06689348	    -25.38644349	     -4.53011968	     -7.66457006	    -25.27207418	      0.86450479	     13.34739310	     28.87010508	     16.65726469	     -9.98930817	    -26.32331708	    -21.34540515	    -11.46217522	    -14.57193605	     14.80306141	    -20.69874106	     11.69390548	     54.77343248
      1.47500000	      9.48158825	     -6.87621611	    -12.77301104	     -0.43293158	      0.97130781	      0.06577120	    -25.14725721	     -4.77052426	     -7.64441326	    -26.16311936	     -0.69697961	     12.73847579	     31.79022127	     16.52410425	     -9.77675736	    -26.23777487	    -21.81808317	    -11.25271246	    -14.56787473	     14.34124615	    -20.60668771	     11.55014277	     54.64433260
      1.48000000	      9.50032671	     -6.78076456	    -12.52066343	     -0.42564834	      0.97195418	      0.06455290	    -24.90205197	     -4.95099452	     -7.70334956	    -27.14117649	     -1.99135011	     12.27491694	     31.90287866	     16.36666211	     -9.55085752	    -26.06406360	    -22.25493791	    -11.00033400	    -14.58919765	     14.32153958	    -20.51659768	     11.45817923	     54.43387143
      1.48500000	      9.50504234	     -6.68489870	    -12.30496911	     -0.41843789	      0.97268254	      0.06338677	    -24.58023144	     -5.14071788	     -7.69146531	    -28.14002975	     -3.60698433	     11.60014791	     34.16926007	     16.18420899	     -9.33104288	    -25.97242868	    -22.63880422	    -10.65168662	    -14.52014746	     13.66208399	    -20.42289626	     11.35559645	     54.24330444
      1.49000000	      9.51776889	     -6.60030035	    -12.03127298	     -0.41122576	      0.97347783	      0.06213663	    -24.23087337	     -5.30108098	     -7.73014146	    -29.22010583	     -5.02614179	     11.17672635	     34.08482493	     15.97145493	     -9.09235808	    -25.82373932	    -22.95270313	    -10.38241859	    -14.48944387	     13.66782748	    -20.32881802	     11.28770075	     53.99666997
